<?xml version="1.0" standalone="no"?>
<!DOCTYPE svg PUBLIC "-//W3C//DTD SVG 20010904//EN"
 "http://www.w3.org/TR/2001/REC-SVG-20010904/DTD/svg10.dtd">
<svg version="1.0" xmlns="http://www.w3.org/2000/svg"
 width="1088.000000pt" height="516.000000pt" viewBox="0 0 1088.000000 516.000000"
 preserveAspectRatio="xMidYMid meet">

<g transform="translate(0.000000,516.000000) scale(0.100000,-0.100000)"
fill="#000000" stroke="none">
<path d="M5225 4904 c-180 -15 -420 -64 -576 -119 -109 -39 -341 -155 -444
-222 -574 -376 -925 -1016 -925 -1685 l0 -118 -232 -2 -233 -3 -3 -142 -3
-143 221 0 220 0 0 -270 0 -270 133 0 132 -1 48 -82 c105 -181 296 -401 467
-540 307 -248 685 -408 1080 -457 124 -15 427 -12 550 5 379 54 734 207 1035
445 174 138 359 350 476 548 l54 89 59 12 c106 22 187 61 242 115 75 76 79 98
79 421 l0 270 -77 3 -78 3 0 142 c-1 292 -63 558 -194 832 -298 618 -887 1046
-1581 1149 -103 16 -362 27 -450 20z m392 -149 c349 -46 655 -169 936 -378 96
-71 265 -233 341 -327 200 -245 341 -555 396 -867 16 -93 31 -322 24 -375 l-7
-48 -43 0 -44 0 0 108 c0 110 -13 249 -30 337 l-10 50 -127 -125 c-107 -105
-128 -122 -131 -104 -2 12 15 57 38 100 45 88 60 152 60 259 0 90 -24 228 -49
286 -63 146 -250 271 -408 273 -66 1 -75 -1 -99 -26 -73 -72 -22 -297 94 -421
60 -63 84 -109 117 -224 55 -188 96 -574 81 -755 -12 -143 -26 -101 -26 77 l0
165 -210 0 -210 0 -1 -142 c0 -133 -1 -140 -14 -106 -35 96 -104 158 -174 158
-42 0 -50 -24 -23 -69 12 -20 54 -99 93 -176 39 -77 82 -155 95 -173 14 -17
32 -55 40 -82 17 -58 58 -108 123 -152 25 -17 47 -32 48 -33 2 -1 -13 -33 -32
-71 -49 -96 -75 -208 -81 -344 -10 -204 -10 -205 -289 -206 l-200 0 -120 -38
c-98 -31 -136 -38 -210 -40 -84 -1 -95 2 -157 32 -78 38 -108 71 -108 118 0
91 201 184 400 184 110 0 164 -17 240 -74 70 -52 165 -86 242 -86 64 0 98 30
98 89 0 80 -90 141 -231 157 -59 6 -130 34 -170 66 -51 42 -72 137 -58 271 5
48 13 126 18 175 10 96 0 137 -39 165 -18 12 -20 19 -11 35 18 35 13 121 -10
170 -56 116 -227 171 -531 172 l-98 0 31 48 c48 76 60 131 66 317 7 201 1 254
-33 295 -53 63 -161 33 -354 -98 -69 -47 -143 -93 -165 -103 -62 -27 -235 -52
-326 -47 -135 8 -149 46 -64 176 35 55 49 89 60 146 8 41 37 136 66 213 99
268 77 338 -106 335 -187 -3 -412 -106 -496 -228 -73 -106 -114 -267 -107
-423 4 -92 6 -99 46 -165 23 -39 42 -81 42 -94 0 -21 -3 -23 -27 -17 -41 10
-152 94 -190 143 l-32 42 -10 -53 c-25 -125 -33 -201 -34 -339 l-1 -148 -48 0
-48 0 0 119 c0 954 733 1756 1715 1880 115 14 355 12 482 -4z m-1617 -2145 l0
-40 -220 0 -220 0 0 -270 0 -270 -100 0 -100 0 0 270 0 270 -220 0 -220 0 0
40 0 40 540 0 540 0 0 -40z m1490 30 c153 -25 238 -107 196 -189 -20 -37 -51
-59 -120 -82 -28 -10 -44 -20 -36 -22 8 -3 33 -10 55 -16 154 -42 177 -174 43
-242 -88 -45 -150 -51 -575 -56 l-403 -5 0 311 0 311 388 0 c216 0 416 -5 452
-10z m1130 -190 c0 -245 6 -267 83 -305 158 -76 533 -44 575 50 8 17 12 99 12
240 l0 215 105 0 105 0 0 -202 c0 -214 -8 -268 -43 -306 -75 -82 -323 -131
-592 -118 -200 10 -323 43 -389 104 -52 49 -56 72 -56 307 l0 215 100 0 100 0
0 -200z m565 -187 c-3 -15 -18 -26 -45 -34 -22 -7 -42 -10 -44 -8 -3 2 8 40
23 84 15 44 37 114 47 155 l19 75 3 -125 c1 -69 0 -135 -3 -147z m-3363 -375
c285 -436 744 -728 1259 -803 138 -20 422 -20 553 0 507 76 944 343 1245 758
l56 77 57 0 c32 0 58 -2 58 -5 0 -3 -22 -39 -49 -79 -217 -320 -528 -573 -883
-718 -222 -90 -435 -135 -683 -145 -675 -26 -1323 301 -1696 855 l-69 103 0
112 0 112 49 -92 c27 -50 73 -129 103 -175z m1428 37 c0 -18 -38 -58 -83 -89
-62 -42 -150 -76 -288 -111 -56 -14 -128 -39 -161 -56 -93 -47 -98 -31 -38
128 23 60 43 114 45 121 3 9 65 12 265 12 143 0 260 -2 260 -5z"/>
<path d="M5200 4670 c-407 -31 -754 -171 -1062 -429 -90 -76 -192 -180 -184
-189 2 -2 26 8 53 21 65 33 164 64 247 78 126 21 265 -6 364 -72 l42 -29 223
-5 c251 -7 305 -14 461 -57 150 -42 232 -37 486 28 174 45 192 48 305 47 66
-1 155 -8 197 -16 l77 -14 62 31 c52 26 76 31 155 34 52 3 94 8 94 12 0 5 -41
44 -90 87 -319 276 -720 439 -1161 473 -74 5 -143 9 -154 9 -11 -1 -63 -5
-115 -9z"/>
<path d="M5642 3369 c-35 -14 -15 -38 84 -103 85 -57 114 -93 114 -144 0 -57
72 -65 232 -28 57 14 136 28 176 31 63 6 72 9 72 27 0 23 -136 168 -188 200
-30 18 -52 20 -250 23 -119 2 -227 -1 -240 -6z"/>
<path d="M4860 2480 l0 -92 268 4 c232 3 271 5 299 21 49 26 67 58 51 92 -25
56 -47 60 -345 63 l-273 3 0 -91z"/>
<path d="M4860 2211 l0 -101 213 0 c227 0 315 9 370 35 73 34 74 104 2 140
-36 18 -64 20 -312 23 l-273 4 0 -101z"/>
<path d="M260 2355 c0 -223 -1 -408 -2 -412 -2 -5 90 -9 205 -11 l207 -2 0
108 0 109 228 6 c253 6 318 15 410 59 116 54 171 134 172 244 0 165 -137 268
-390 294 -52 5 -260 10 -462 10 l-368 0 0 -405z m944 272 c86 -29 132 -63 156
-112 52 -107 -28 -204 -197 -240 -49 -11 -141 -15 -330 -15 l-262 0 -3 -112
-3 -113 -102 -3 -103 -3 0 311 0 311 398 -4 c337 -3 404 -6 446 -20z"/>
<path d="M570 2455 l0 -117 243 4 c223 3 245 5 282 24 28 15 44 32 54 57 19
50 2 87 -52 118 -41 23 -50 24 -284 27 l-243 4 0 -117z m406 8 c82 -11 17 -21
-153 -22 -140 -1 -166 3 -146 22 8 9 236 9 299 0z"/>
<path d="M1960 2345 l0 -415 210 0 210 0 -2 413 -3 412 -207 3 -208 2 0 -415z
m310 -5 l0 -310 -100 0 -100 0 0 310 0 310 100 0 100 0 0 -310z"/>
<path d="M8142 2473 c3 -267 5 -291 24 -333 27 -59 74 -104 143 -140 118 -59
145 -63 519 -67 l342 -5 0 145 0 146 -277 3 c-186 2 -287 8 -305 16 l-28 12 0
255 0 255 -211 0 -210 0 3 -287z m308 -15 c0 -106 5 -209 10 -229 25 -89 92
-109 383 -116 l217 -6 0 -40 0 -39 -267 5 c-333 6 -420 25 -495 104 -44 46
-48 71 -48 299 l0 214 100 0 100 0 0 -192z"/>
<path d="M9592 2472 l3 -288 30 -59 c49 -96 166 -161 333 -185 37 -5 198 -10
358 -10 l292 0 6 23 c8 29 8 196 0 235 l-6 31 -272 3 c-180 2 -280 8 -298 16
l-28 12 0 255 0 255 -211 0 -210 0 3 -288z m308 -22 c0 -260 8 -280 120 -315
42 -13 108 -18 273 -22 l217 -6 0 -39 0 -40 -267 5 c-220 4 -280 8 -338 23
-100 27 -159 64 -184 117 -19 40 -21 60 -21 260 l0 217 100 0 100 0 0 -200z"/>
<path d="M10410 1823 c-73 -27 -61 -123 15 -123 62 0 87 71 39 109 -28 22 -30
23 -54 14z m35 -58 c0 -13 -8 -21 -22 -23 -17 -3 -23 2 -23 16 0 10 3 22 7 26
13 13 38 1 38 -19z"/>
<path d="M9420 1748 c-25 -42 -25 -48 3 -48 12 0 42 18 67 40 l45 39 -48 1
c-43 0 -49 -3 -67 -32z"/>
<path d="M260 1490 l0 -190 60 0 60 0 0 48 c0 40 5 53 29 76 l29 28 42 -76 42
-76 74 0 c58 0 73 3 68 13 -4 6 -36 58 -71 113 -35 56 -63 105 -63 110 0 5 30
39 67 76 l67 68 -81 0 -81 0 -61 -67 -61 -68 0 68 0 67 -60 0 -60 0 0 -190z"/>
<path d="M1050 1490 l0 -190 160 0 160 0 0 45 0 45 -95 0 -95 0 0 145 0 145
-65 0 -65 0 0 -190z"/>
<path d="M1750 1543 c0 -158 11 -193 70 -228 47 -27 179 -28 228 -2 62 34 72
64 72 225 l0 142 -60 0 -60 0 0 -128 c0 -149 -7 -166 -65 -166 -58 0 -65 17
-65 166 l0 128 -60 0 -60 0 0 -137z"/>
<path d="M2540 1490 l0 -190 138 0 c110 0 144 3 172 18 68 34 80 106 26 156
l-34 32 24 23 c35 33 32 84 -5 122 l-29 29 -146 0 -146 0 0 -190z m228 86 c5
-26 -24 -46 -65 -46 -32 0 -33 2 -33 38 l0 38 47 -6 c37 -4 49 -9 51 -24z m6
-132 c9 -8 16 -19 16 -24 0 -18 -46 -40 -82 -40 -38 0 -38 0 -38 40 l0 40 44
0 c27 0 51 -6 60 -16z"/>
<path d="M7570 1635 l0 -44 63 -3 62 -3 3 -142 3 -143 59 0 60 0 0 145 0 145
60 0 60 0 0 45 0 45 -185 0 -185 0 0 -45z"/>
<path d="M8060 1490 l0 -190 165 0 165 0 0 45 0 45 -105 0 -105 0 0 35 0 35
95 0 95 0 0 40 0 40 -95 0 -95 0 0 30 0 30 105 0 105 0 0 40 0 40 -165 0 -165
0 0 -190z"/>
<path d="M8520 1491 l0 -191 60 0 60 0 0 74 c0 41 4 77 9 80 15 10 42 -19 80
-84 l37 -65 72 -3 73 -3 -32 58 c-18 32 -43 70 -56 84 l-24 26 26 17 c33 22
58 79 50 116 -3 15 -17 38 -31 51 -24 23 -34 24 -175 27 l-149 3 0 -190z m227
93 c11 -30 -11 -49 -61 -52 l-46 -3 0 35 0 36 50 0 c38 0 52 -4 57 -16z"/>
<path d="M9010 1490 l0 -190 65 0 65 0 0 190 0 190 -65 0 -65 0 0 -190z"/>
<path d="M9290 1490 l0 -190 165 0 165 0 0 45 0 45 -105 0 -105 0 0 35 0 35
95 0 95 0 0 40 0 40 -95 0 -95 0 0 30 0 30 100 0 100 0 0 40 0 40 -160 0 -160
0 0 -190z"/>
<path d="M9750 1491 l0 -191 60 0 60 0 0 76 c0 72 1 75 22 72 16 -2 34 -24 63
-75 l40 -73 67 0 c38 0 68 3 68 6 0 18 -67 128 -87 144 l-24 19 30 16 c38 19
51 43 51 94 0 28 -7 48 -24 68 l-24 28 -151 3 -151 3 0 -190z m221 93 c22 -26
-1 -49 -55 -52 l-46 -3 0 35 c0 36 0 36 44 36 28 0 48 -6 57 -16z"/>
<path d="M10240 1542 c0 -156 11 -192 71 -227 45 -27 178 -28 226 -3 61 34 75
73 81 229 l5 139 -67 0 -66 0 0 -128 c0 -149 -7 -166 -65 -166 -58 0 -65 17
-65 166 l0 128 -60 0 -60 0 0 -138z"/>
<path d="M7123 1460 c-18 -20 -33 -41 -33 -46 1 -5 21 -25 45 -44 25 -19 45
-38 45 -41 0 -4 -17 -26 -39 -50 l-39 -44 -49 42 -50 42 -37 -38 c-20 -20 -36
-41 -36 -47 0 -10 261 -236 279 -242 4 -1 25 16 46 39 l38 42 -24 21 c-14 12
-39 33 -57 48 -37 31 -35 43 17 92 l30 29 58 -47 57 -48 38 41 c21 22 38 44
37 48 0 9 -271 236 -285 239 -5 1 -24 -15 -41 -36z"/>
<path d="M3535 1389 c-44 -16 -126 -45 -182 -65 -57 -20 -103 -39 -103 -43 1
-3 17 -24 36 -46 33 -37 36 -39 66 -27 30 11 33 10 64 -26 39 -44 50 -70 35
-85 -6 -6 -11 -17 -11 -25 0 -15 59 -92 71 -92 4 0 50 75 104 167 106 184 104
175 45 241 -17 17 -33 31 -37 31 -5 -1 -44 -14 -88 -30z m45 -95 c0 -3 -14
-26 -31 -51 l-31 -45 -27 27 c-14 15 -21 29 -16 31 6 3 28 13 50 23 43 21 55
24 55 15z"/>
<path d="M3727 1046 c-59 -79 -107 -147 -107 -152 0 -8 63 -54 74 -54 3 0 38
45 77 100 40 55 74 98 76 97 1 -2 -18 -55 -43 -118 -49 -120 -49 -128 -2 -157
27 -16 27 -16 127 66 56 45 101 79 101 75 0 -3 -31 -48 -70 -99 -38 -52 -70
-97 -70 -101 0 -7 64 -53 74 -53 6 0 229 300 225 303 -26 19 -107 75 -115 80
-7 4 -49 -24 -98 -64 -47 -39 -86 -66 -86 -61 0 5 9 29 19 53 11 24 29 67 40
95 l20 52 -59 41 c-32 23 -62 41 -67 41 -5 0 -57 -65 -116 -144z"/>
<path d="M6796 1130 c-48 -15 -106 -62 -133 -107 -32 -55 -28 -110 12 -178 73
-125 220 -140 323 -33 41 43 55 90 42 139 l-10 37 -51 -16 c-49 -16 -50 -17
-45 -48 8 -41 -24 -84 -63 -84 -37 0 -66 23 -97 76 -23 39 -25 48 -14 73 15
37 59 57 89 42 18 -10 25 -6 55 26 20 21 36 41 36 44 1 21 -102 42 -144 29z"/>
<path d="M6328 959 c-34 -18 -38 -23 -38 -60 0 -33 3 -40 18 -37 17 3 67 90
60 107 -1 5 -20 1 -40 -10z"/>
<path d="M6468 919 l-58 -29 -1 -53 c-1 -88 -5 -91 -72 -50 l-59 36 -59 -29
c-33 -15 -56 -31 -52 -35 5 -4 57 -33 116 -65 109 -58 109 -58 143 -126 19
-37 37 -68 39 -68 14 0 106 52 103 58 -2 4 -18 36 -36 71 l-33 63 16 125 c9
69 15 127 13 128 -2 2 -29 -10 -60 -26z"/>
<path d="M4187 733 c-42 -91 -76 -167 -75 -168 2 -2 67 -32 146 -68 l142 -65
20 39 20 39 -87 40 c-48 22 -89 42 -91 44 -2 2 4 18 13 35 l16 31 69 -35 c38
-19 76 -35 83 -35 13 0 37 39 37 59 0 5 -36 25 -80 45 -76 35 -80 38 -69 59 7
12 13 23 14 25 1 1 42 -16 90 -38 48 -22 89 -39 90 -38 8 10 36 70 33 73 -9 8
-275 125 -283 125 -6 -1 -45 -75 -88 -167z"/>
<path d="M6041 740 c-35 -11 -64 -20 -65 -22 -2 -2 -20 -39 -40 -83 l-38 -80
-19 64 c-10 35 -19 65 -21 66 -2 1 -27 -4 -55 -13 -33 -9 -53 -20 -53 -29 0
-12 56 -209 91 -319 l10 -32 52 16 c29 9 54 17 56 19 2 2 -1 22 -8 44 -11 37
-10 46 5 75 10 19 21 34 24 34 3 0 30 -25 60 -55 60 -60 68 -62 149 -37 l54
17 -102 90 c-99 88 -110 101 -93 121 25 27 82 144 70 143 -7 0 -42 -9 -77 -19z"/>
<path d="M4631 713 c-44 -170 -81 -318 -81 -324 0 -7 78 -29 103 -29 10 0 21
23 32 70 9 39 21 70 25 70 17 0 36 -36 55 -103 l20 -70 63 -17 c57 -16 62 -16
62 -1 0 29 -28 122 -44 146 -15 23 -15 25 8 31 42 10 78 58 80 104 1 65 -35
91 -170 123 -60 14 -117 28 -126 32 -13 5 -19 -2 -27 -32z m168 -84 c27 -9 32
-16 29 -38 -3 -29 -22 -36 -74 -26 -31 5 -34 8 -28 33 12 48 17 50 73 31z"/>
<path d="M5080 643 c0 -5 -7 -80 -15 -168 -8 -88 -15 -168 -15 -177 0 -13 13
-18 55 -23 31 -4 58 -6 60 -4 7 8 36 360 30 369 -7 12 -115 14 -115 3z"/>
<path d="M5425 639 c-41 -11 -91 -62 -106 -106 -15 -46 -8 -128 16 -176 10
-22 36 -51 58 -65 35 -23 51 -27 111 -26 102 1 162 40 181 116 6 23 3 26 -39
37 -59 14 -66 14 -66 -4 0 -24 -46 -65 -73 -65 -38 0 -67 40 -74 101 -4 45 -2
58 17 82 27 34 74 36 106 6 21 -20 25 -20 65 -7 24 8 44 19 46 24 6 18 -38 66
-73 80 -37 15 -122 17 -169 3z"/>
</g>
</svg>
